<svg width="103" height="27" viewBox="0 0 103 27" fill="none" xmlns="http://www.w3.org/2000/svg">
<path d="M22.84 26H16.684L6.388 10.412V26H0.232V0.727999H6.388L16.684 16.388V0.727999H22.84V26ZM33.4583 5.66V10.772H41.7023V15.524H33.4583V21.068H42.7823V26H27.3023V0.727999H42.7823V5.66H33.4583ZM81.5549 0.727999L74.9669 26H67.5149L63.4829 9.368L59.3069 26H51.8549L45.4469 0.727999H52.0349L55.6709 19.124L60.1709 0.727999H66.9389L71.2589 19.124L74.9309 0.727999H81.5549ZM93.7862 26.252C91.9382 26.252 90.2822 25.952 88.8182 25.352C87.3542 24.752 86.1782 23.864 85.2902 22.688C84.4262 21.512 83.9702 20.096 83.9222 18.44H90.4742C90.5702 19.376 90.8942 20.096 91.4462 20.6C91.9982 21.08 92.7182 21.32 93.6062 21.32C94.5182 21.32 95.2382 21.116 95.7662 20.708C96.2942 20.276 96.5582 19.688 96.5582 18.944C96.5582 18.32 96.3422 17.804 95.9102 17.396C95.5022 16.988 94.9862 16.652 94.3622 16.388C93.7622 16.124 92.8982 15.824 91.7702 15.488C90.1382 14.984 88.8062 14.48 87.7742 13.976C86.7422 13.472 85.8542 12.728 85.1102 11.744C84.3662 10.76 83.9942 9.476 83.9942 7.892C83.9942 5.54 84.8462 3.704 86.5502 2.384C88.2542 1.04 90.4742 0.368 93.2102 0.368C95.9942 0.368 98.2382 1.04 99.9422 2.384C101.646 3.704 102.558 5.552 102.678 7.928H96.0182C95.9702 7.112 95.6702 6.476 95.1182 6.02C94.5662 5.54 93.8582 5.3 92.9942 5.3C92.2502 5.3 91.6502 5.504 91.1942 5.912C90.7382 6.296 90.5102 6.86 90.5102 7.604C90.5102 8.42 90.8942 9.056 91.6622 9.512C92.4302 9.968 93.6302 10.46 95.2622 10.988C96.8942 11.54 98.2142 12.068 99.2222 12.572C100.254 13.076 101.142 13.808 101.886 14.768C102.63 15.728 103.002 16.964 103.002 18.476C103.002 19.916 102.63 21.224 101.886 22.4C101.166 23.576 100.11 24.512 98.7182 25.208C97.3262 25.904 95.6822 26.252 93.7862 26.252Z" fill="#0C0C0C"/>
</svg>
